<svg width="16" height="11" viewBox="0 0 16 11" fill="none" xmlns="http://www.w3.org/2000/svg">
<path d="M14.4 2.7999C13.96 2.7999 13.6 2.4399 13.6 1.9999C13.6 1.5599 13.96 1.1999 14.4 1.1999V0.399902H1.6V1.1999C2.04 1.1999 2.4 1.5599 2.4 1.9999C2.4 2.4399 2.04 2.7999 1.6 2.7999H0V8.3999H1.6C2.04 8.3999 2.4 8.7599 2.4 9.1999C2.4 9.6399 2.04 9.9999 1.6 9.9999V10.7999H14.4V9.9999C13.96 9.9999 13.6 9.6399 13.6 9.1999C13.6 8.7599 13.96 8.3999 14.4 8.3999H16V2.7999H14.4ZM14.4 5.9999H13.6V6.7999H12V5.9999H9.128C8.96 6.4639 8.52 6.7999 8 6.7999C7.48 6.7999 7.04 6.4639 6.872 5.9999H4V6.7999H2.4V5.9999H1.6V5.1999H2.4V4.3999H4V5.1999H6.872C7.04 4.7359 7.48 4.3999 8 4.3999C8.52 4.3999 8.96 4.7359 9.128 5.1999H12V4.3999H13.6V5.1999H14.4V5.9999Z" fill="white"/>
</svg>
