<svg width="16" height="6" viewBox="0 0 16 6" fill="none" xmlns="http://www.w3.org/2000/svg">
<path d="M14.5455 2.27288C13.0909 2.27288 12.3636 0.0910645 10.1818 0.0910645C8 0.0910645 8 1.54561 8 1.54561C8 1.54561 8 0.0910645 5.81818 0.0910645C3.63636 0.0910645 2.90909 2.27288 1.45455 2.27288C0.727273 2.27288 0 1.54561 0 1.54561C0 1.54561 0.727273 5.18197 3.63636 5.18197C7.27273 5.18197 8 3.00016 8 3.00016C8 3.00016 8.72727 5.18197 12.3636 5.18197C15.2727 5.18197 16 1.54561 16 1.54561C16 1.54561 15.2727 2.27288 14.5455 2.27288Z" fill="white"/>
</svg>
