<svg width="25" height="24" viewBox="0 0 25 24" fill="none" xmlns="http://www.w3.org/2000/svg">
<path d="M3.564 7.51C4.39601 5.85324 5.67237 4.46051 7.25043 3.48747C8.82849 2.51443 10.6461 1.99942 12.5 2C15.195 2 17.459 2.991 19.19 4.605L16.323 7.473C15.286 6.482 13.968 5.977 12.5 5.977C9.895 5.977 7.69 7.737 6.905 10.1C6.705 10.7 6.591 11.34 6.591 12C6.591 12.66 6.705 13.3 6.905 13.9C7.691 16.264 9.895 18.023 12.5 18.023C13.845 18.023 14.99 17.668 15.886 17.068C16.4054 16.726 16.8501 16.2822 17.1932 15.7635C17.5363 15.2448 17.7706 14.6619 17.882 14.05H12.5V10.182H21.918C22.036 10.836 22.1 11.518 22.1 12.227C22.1 15.273 21.01 17.837 19.118 19.577C17.464 21.105 15.2 22 12.5 22C11.1866 22.0005 9.88604 21.7422 8.67254 21.2399C7.45905 20.7375 6.35645 20.0009 5.42776 19.0722C4.49907 18.1436 3.7625 17.041 3.26013 15.8275C2.75777 14.614 2.49948 13.3134 2.5 12C2.5 10.386 2.886 8.86 3.564 7.51Z" fill="white"/>
</svg>
