<svg width="14" height="16" viewBox="0 0 14 16" fill="none" xmlns="http://www.w3.org/2000/svg">
<path d="M13.7694 1.84615V9.84615C13.7696 9.93052 13.7524 10.014 13.719 10.0915C13.6856 10.1689 13.6365 10.2387 13.575 10.2964C13.5135 10.3541 13.4407 10.3985 13.3613 10.4269C13.2819 10.4553 13.1974 10.4671 13.1133 10.4615C12.955 10.4479 12.8078 10.3749 12.7012 10.2572C12.5946 10.1395 12.5365 9.98574 12.5386 9.82692V1.84615C12.5388 1.76165 12.5216 1.67802 12.4881 1.60046C12.4546 1.5229 12.4054 1.45308 12.3437 1.39534C12.282 1.33761 12.2091 1.2932 12.1295 1.26489C12.0499 1.23657 11.9653 1.22496 11.881 1.23077C11.7227 1.24511 11.5757 1.3187 11.4695 1.43681C11.3632 1.55492 11.3055 1.70883 11.3079 1.86769V12C11.3079 12.0816 11.2755 12.1599 11.2178 12.2176C11.1601 12.2753 11.0818 12.3077 11.0002 12.3077H0.538649C0.457044 12.3077 0.378782 12.2753 0.321078 12.2176C0.263375 12.1599 0.230957 12.0816 0.230957 12V1.84615C0.230957 1.35652 0.425462 0.886947 0.771683 0.540726C1.1179 0.194505 1.58748 0 2.07711 0H11.9233C12.4129 0 12.8825 0.194505 13.2287 0.540726C13.5749 0.886947 13.7694 1.35652 13.7694 1.84615ZM11.0002 13.5385H0.538649C0.457044 13.5385 0.378782 13.5709 0.321078 13.6286C0.263375 13.6863 0.230957 13.7645 0.230957 13.8462V14.7692C0.230957 15.0957 0.360627 15.4087 0.591441 15.6395C0.822255 15.8703 1.13531 16 1.46173 16H10.0771C10.4035 16 10.7166 15.8703 10.9474 15.6395C11.1782 15.4087 11.3079 15.0957 11.3079 14.7692V13.8462C11.3079 13.7645 11.2755 13.6863 11.2178 13.6286C11.1601 13.5709 11.0818 13.5385 11.0002 13.5385Z" fill="white"/>
</svg>
