<svg width="16" height="7" viewBox="0 0 16 7" fill="none" xmlns="http://www.w3.org/2000/svg">
<path d="M13.0452 1.0814C14.2837 1.63995 15.3514 2.47849 15.9274 3.66613C15.9873 3.78979 16.011 3.92791 15.9957 4.06449C15.9804 4.20107 15.9267 4.33051 15.8409 4.43783C15.755 4.54515 15.6405 4.62595 15.5106 4.67086C15.3807 4.71577 15.2408 4.72295 15.107 4.69158C10.7746 3.67631 6.39208 5.42177 4.08153 6.37449C2.63135 6.97231 1.22335 6.48431 0.495351 5.50104C0.116753 4.99991 -0.0543567 4.37225 0.0175326 3.74831C0.264805 1.70831 2.82917 0.835584 4.52081 0.451584C7.27062 -0.171689 10.4466 -0.0924165 13.0452 1.08067V1.0814Z" fill="white"/>
</svg>
